<svg xmlns="http://www.w3.org/2000/svg" version="1.1" xmlns:xlink="http://www.w3.org/1999/xlink" xmlns:svgjs="http://svgjs.dev/svgjs" width="1000" height="1000" viewBox="0 0 1000 1000"><rect width="1000" height="1000" fill="#000000"></rect><g transform="matrix(0.7,0,0,0.7,150.0000000000001,106.25)"><svg viewBox="0 0 320 360" data-background-color="#ffffff" preserveAspectRatio="xMidYMid meet" height="1125" width="1000" xmlns="http://www.w3.org/2000/svg" xmlns:xlink="http://www.w3.org/1999/xlink"><g id="tight-bounds" transform="matrix(1,0,0,1,0,0)"><svg viewBox="0 0 320 360" height="360" width="320"><g><svg></svg></g><g><svg viewBox="0 0 320 360" height="360" width="320"><g><path xmlns="http://www.w3.org/2000/svg" d="M20.961 227.22l3.726 4.658-1.863-6.056c-0.466-2.795-3.726 0.466-1.863 1.398M25.153 224.425c1.397 2.329 2.795 4.658 2.795 6.987 0 3.261 2.795 4.658 5.123 5.589-3.261-3.726-5.124-13.974-7.918-12.576M204.017 26.929c7.918 0 15.371-0.932 23.756 0.931 20.495 5.124 37.729 15.371 49.374 29.811l32.606 52.169c1.397 13.042 4.192 27.482 3.726 43.319 3.261 0 2.795-4.658 6.521-5.59-3.726 9.316-5.59 20.961-6.521 34.469-2.329-7.453 0-18.632 0.466-24.687-3.261 5.124-5.124 1.397-5.124-0.932 0.466-3.726-1.397-3.261-2.795-4.658-5.124-4.658-8.384-9.782-12.11-17.7 2.329-6.055 2.795-14.905-4.658-19.563-2.329-1.397-5.124-3.726-6.521-7.453-1.863-5.124-5.124-11.179-4.193-19.097 0.466-2.329-6.987 5.124-11.179 1.863-18.166-12.576-36.332-27.016-58.224-39.127-11.645 0-20.029-4.192-24.221-9.316-3.726-4.658-0.932-10.713 4.658-11.179 3.261 0 6.987-0.932 9.782 0.932 0.466-1.863 2.329-4.192 4.657-4.192M157.904 16.215l0.932 0.466c4.658 0.932 6.987 7.453 12.11 5.124 0 3.261 0.466 6.521-0.466 8.85-1.397 3.726-5.59 3.726-8.85 3.726-31.208-1.863-49.374 11.179-68.471 22.358-5.124 3.261-10.713 5.59-14.906 9.782-20.029 18.632-41.921 35.866-47.045 70.335l-4.192 38.195c-0.466 4.192-5.124 8.384-4.192 13.508l3.26 22.824c-3.261-3.261-5.124 0.932-4.192 2.795 0.466 1.397 2.329 6.055 5.124 1.863 3.726 6.987 7.453 20.495 12.576 26.55 15.837 18.632 36.332 35.4 53.101 52.169 4.192-0.932 7.453-0.932 8.384-3.727 1.397 2.795-1.397 5.59-3.726 6.056 7.453 4.658 15.837 8.85 27.016 9.781 14.44 0.932 27.948 3.261 40.524 6.522 6.521-1.863 13.042-2.795 20.029-3.261 2.329 0 3.726-3.726 6.521-4.658l0.466-4.658c2.795 4.192 2.329-1.397 0.466-4.192 3.261 2.795 4.192 5.124 5.589 6.987 0-1.397 3.726-6.521 3.727-0.466l0.931-6.055c1.397-0.932 1.863 5.124 3.261 0.931 1.397-4.192 4.192-0.932 6.987-2.329-0.932 1.863-0.466 5.59 2.794 3.261l3.727-3.261c2.329 5.59 6.055 3.261 7.918 2.329 20.495-13.042 40.99-28.413 60.553-43.784l-0.466 6.055 2.329-7.453c2.329 2.329 4.192 0.466 5.124-0.931 2.795-4.658 6.521-9.316 12.577-13.508-7.453 20.029-16.303 35.866-27.482 48.908l-4.658 5.59c0 3.261-0.932 7.453-4.658 7.918-1.863 0.466-5.59-0.932-8.384 1.863-1.397 1.863 3.261 5.59-0.466 2.795-3.261-2.329-6.521 0-10.248 0.932-2.795 0.932 1.863 3.726 2.795 5.589 0.932 1.863 1.863 3.726 1.398 6.056l-5.124-5.59c-6.055 3.261-9.782 9.316-14.906 13.974-2.329 1.863-1.397 5.124-1.397 7.918-3.261 0-6.987-0.932-8.85 0.932-1.397 1.863-0.932 4.658-0.932 7.453-4.658-0.466-5.124-7.453-9.315-6.056-4.192 0.932-8.85 1.397-12.577 3.727 2.795 5.59-4.658 2.329-3.726 3.26-6.987-4.192-13.042-7.453-20.495-4.658-15.837-5.124-35.4-2.795-49.84-0.931 0-2.329 0.466-4.658-0.466-5.124-0.932 2.329-3.726 1.397-3.26 1.397-8.85-6.055-17.7-9.782-27.016-14.905-8.384 0.932-16.303-3.261-18.632-5.59-6.521-6.055-13.974-2.795-20.029-4.192-13.042-3.261-17.7-16.769-19.098-26.084-0.932-4.658-4.658-6.521-6.055-6.056-6.055-19.563-15.371-37.263-22.824-55.429-1.863-4.658-1.397-9.316-1.397-14.44 2.329 0.932 4.658 0.466 4.192-2.794-2.329-15.371-7.918-27.016-13.974-38.195 3.261-15.837 3.726-34.469 11.179-48.443 6.521-12.576 18.632-19.098 27.016-29.811 2.795-3.726 2.795-8.85 5.59-12.11 9.316-9.316 18.632-19.098 28.879-27.482 4.658-3.726 10.247 0 17.234-1.397 2.329-8.384 11.645-15.837 20.495-13.508 3.726 0.932 11.179-8.85 13.508-9.782 3.726-1.397 1.863 3.726 1.863 6.987 8.85-6.987 20.961-10.713 32.14-14.906" fill="#ffffff" fill-rule="nonzero" stroke="none" stroke-width="1" stroke-linecap="butt" stroke-linejoin="miter" stroke-miterlimit="10" stroke-dasharray="" stroke-dashoffset="0" font-family="none" font-weight="none" font-size="none" text-anchor="none" style="mix-blend-mode: normal" data-fill-palette-color="tertiary"></path></g><g transform="matrix(1,0,0,1,103.7246577716167,90)"><svg viewBox="0 0 112.55068445676659 180" height="180" width="112.55068445676659"><g><svg viewBox="0 0 112.55068445676659 180" height="180" width="112.55068445676659"><g><svg viewBox="0 0 112.55068445676659 180" height="180" width="112.55068445676659"><g><svg viewBox="0 0 112.55068445676659 180" height="180" width="112.55068445676659"><g id="textblocktransform"><svg viewBox="0 0 112.55068445676659 180" height="180" width="112.55068445676659" id="textblock"><g><svg viewBox="0 0 112.55068445676659 180" height="180" width="112.55068445676659"><g transform="matrix(1,0,0,1,0,0)"><svg width="112.55068445676659" viewBox="-1.0199999809265137 -41.5 29.190000534057617 46.09000015258789" height="180" data-palette-color="#755bb4"><path d="M22.22-27.49L22.22-27.49Q22.22-26.95 22.44-26.59 22.66-26.22 22.66-25.93L22.66-25.93Q22.56-25.44 22.85-24.78 23.14-24.12 23.14-23.44L23.14-23.44Q23.05-23.14 22.39-22.68 21.73-22.22 20.92-21.68 20.12-21.14 19.36-20.63 18.6-20.12 18.31-19.82L18.31-19.82Q18.55-19.43 18.92-19.19 19.29-18.95 19.63-18.7L19.63-18.7Q19.92-18.46 20.48-17.99 21.04-17.53 21.66-16.99 22.27-16.46 22.78-15.97 23.29-15.48 23.44-15.23L23.44-15.23Q23.54-15.19 23.61-14.89 23.68-14.6 23.73-14.23 23.78-13.87 23.8-13.53 23.83-13.18 23.83-13.09L23.83-13.09Q23.78-12.55 23.85-12.3 23.93-12.06 24-11.79 24.07-11.52 24.12-11.28 24.17-11.04 24.17-11.04L24.17-11.04Q24.17-10.74 23.9-10.5 23.63-10.25 23.39-10.06L23.39-10.06Q23.14-9.86 22.92-9.67 22.71-9.47 22.46-9.23L22.46-9.23Q22.17-8.98 21.8-8.76 21.44-8.54 21.14-8.3L21.14-8.3Q20.95-8.2 20.8-8.03 20.65-7.86 20.51-7.76L20.51-7.76Q20.07-7.37 19.53-7.01 18.99-6.64 18.51-6.35L18.51-6.35Q17.97-6.01 17.48-5.64 16.99-5.27 16.46-4.88L16.46-4.88Q15.72-4.44 15.01-4.03 14.31-3.61 13.62-3.17L13.62-3.17Q13.28-2.93 12.96-2.69 12.65-2.44 12.3-2.25L12.3-2.25Q11.33-1.71 10.35-1.12 9.38-0.54 8.45 0.15L8.45 0.15Q7.67 0.34 7.32 0.46 6.98 0.59 6.64 0.59L6.64 0.59Q6.35 0.59 6.27 0.37 6.2 0.15 6.01 0.15L6.01 0.15Q5.27 0.24 5.2 0.17 5.13 0.1 4.98 0L4.98 0Q4.25 0.1 3.76 0L3.76 0Q3.61-0.24 3.56-0.61 3.52-0.98 3.27-1.22L3.27-1.22Q3.37-1.71 3.3-2.15 3.22-2.59 3.32-3.03L3.32-3.03Q3.17-3.61 3.17-4.1L3.17-4.1Q3.17-4.74 3.32-5.42L3.32-5.42Q3.17-5.86 3.17-6.3L3.17-6.3Q3.17-6.69 3.22-7.08 3.27-7.47 3.27-7.86L3.27-7.86Q3.27-8.35 3.08-8.74L3.08-8.74Q3.08-9.62 3.05-10.47 3.03-11.33 3.03-12.21L3.03-12.21Q3.03-12.6 3.03-12.99 3.03-13.38 3.08-13.82L3.08-13.82Q3.03-14.06 3.03-14.55L3.03-14.55Q3.03-14.84 3.13-15.06 3.22-15.28 3.22-15.53L3.22-15.53Q3.22-16.06 3.15-16.55 3.08-17.04 3.08-17.58L3.08-17.58Q3.08-18.07 3.15-18.51 3.22-18.95 3.22-19.43L3.22-19.43Q3.08-19.63 3.03-19.87 2.98-20.12 2.98-20.36L2.98-20.36Q2.98-20.56 3.08-20.95L3.08-20.95Q3.08-21.34 3.03-21.78 2.98-22.22 2.98-22.61L2.98-22.61Q2.98-22.8 3-22.95 3.03-23.1 3.08-23.29L3.08-23.29Q2.98-23.63 2.98-23.97 2.98-24.32 2.98-24.66L2.98-24.66Q2.98-25.1 3.03-25.56 3.08-26.03 3.08-26.46L3.08-26.46Q3.03-27.2 3.1-27.61 3.17-28.03 3.22-28.47L3.22-28.47 3.22-31.25Q3.22-31.64 3.13-32.1 3.03-32.57 3.03-33.01L3.03-33.01Q3.03-33.25 3.08-33.74 3.13-34.23 3.22-34.47L3.22-34.47Q3.91-35.5 4.83-35.64L4.83-35.64Q5.03-35.74 5.13-35.91 5.22-36.08 5.57-36.08L5.57-36.08Q6.15-36.57 6.35-36.84 6.54-37.11 6.84-37.35L6.84-37.35Q6.98-37.35 7.1-37.43 7.23-37.5 7.42-37.5L7.42-37.5Q7.76-37.4 7.98-37.3 8.2-37.21 8.45-37.16L8.45-37.16Q9.42-36.43 10.38-35.72 11.33-35.01 12.3-34.23L12.3-34.23Q12.74-33.84 13.16-33.45 13.57-33.06 14.01-32.71L14.01-32.71Q14.26-32.57 14.55-32.42 14.84-32.28 15.09-32.08L15.09-32.08Q15.63-31.74 16.16-31.37 16.7-31.01 17.24-30.66L17.24-30.66 20.75-28.47Q21.14-28.22 21.51-27.98 21.88-27.73 22.22-27.49ZM15.23-25.39L15.23-25.39Q14.5-25.73 13.84-26.22 13.18-26.71 12.45-26.95L12.45-26.95Q12.06-27.34 11.62-27.49 11.18-27.64 10.79-27.93L10.79-27.93Q10.35-28.32 10.01-28.61 9.67-28.91 9.13-29.15L9.13-29.15Q8.89-27.64 8.76-26.2 8.64-24.76 8.64-23.29L8.64-23.29Q8.64-21.78 8.94-20.41L8.94-20.41Q9.47-20.65 9.96-20.95 10.45-21.24 10.94-21.53L10.94-21.53Q11.13-21.63 11.3-21.73 11.47-21.83 11.72-21.92L11.72-21.92Q11.96-22.12 12.21-22.31 12.45-22.51 12.7-22.66L12.7-22.66Q13.23-23.05 13.75-23.36 14.26-23.68 14.79-24.07L14.79-24.07Q15.04-24.27 15.33-24.39 15.63-24.51 15.92-24.76L15.92-24.76Q15.87-24.95 15.6-25.07 15.33-25.2 15.23-25.39ZM13.82-16.26L13.82-16.26Q13.67-16.26 13.53-16.33 13.38-16.41 13.18-16.41L13.18-16.41Q12.6-16.02 12.08-15.75 11.57-15.48 11.04-15.14L11.04-15.14Q10.79-14.99 10.55-14.79 10.3-14.6 10.06-14.5L10.06-14.5Q9.42-14.11 9.08-13.84 8.74-13.57 8.54-13.18L8.54-13.18Q8.64-11.82 8.62-10.45 8.59-9.08 8.59-7.67L8.59-7.67Q8.59-7.42 8.74-7.13L8.74-7.13Q9.18-7.18 10.3-7.79 11.43-8.4 12.67-9.18 13.92-9.96 15.06-10.69 16.21-11.43 16.75-11.77L16.75-11.77Q17.14-11.87 17.65-12.16 18.16-12.45 18.26-12.84L18.26-12.84Q17.33-13.92 16.11-14.62 14.89-15.33 13.82-16.26Z" opacity="1" transform="matrix(1,0,0,1,0,0)" fill="#ffffff" class="undefined-text-0" data-fill-palette-color="primary" id="text-0"></path></svg></g></svg></g></svg></g></svg></g></svg></g></svg></g></svg></g></svg></g><defs></defs></svg><rect width="320" height="360" fill="none" stroke="none" visibility="hidden"></rect></g></svg></g></svg>